<svg id="Calque_1" data-name="Calque 1" xmlns="http://www.w3.org/2000/svg" viewBox="0 0 1724.1 701.4"><defs><style>.cls-1{fill:#add8e6;}.cls-2,.cls-3{fill:#c64466;}.cls-3,.cls-4,.cls-6{font-size:48px;font-family:ArialMT, Arial;}.cls-4{fill:#44a6c6;}.cls-5{fill:none;stroke:#44a6c6;stroke-miterlimit:10;stroke-width:5px;}</style></defs><rect class="cls-1" x="56.91" y="161.4" width="1270" height="112"/><rect class="cls-1" x="56.91" y="375.4" width="1270" height="112"/><rect class="cls-1" x="56.91" y="589.4" width="816" height="112"/><rect class="cls-2" x="183.15" y="375.4" width="78" height="112"/><rect class="cls-2" x="329.16" y="375.4" width="78" height="112"/><rect class="cls-2" x="602.04" y="375.4" width="78" height="112"/><rect class="cls-2" x="1094.04" y="375.4" width="78" height="112"/><text class="cls-3" transform="translate(1362.43 412.01)">Don’t pass <tspan x="0" y="57.6">filter</tspan></text><text class="cls-4" transform="translate(1342.56 198.01)">Correct data bind <tspan x="0" y="57.6">associations</tspan></text><line class="cls-5" x1="125.89" y1="209.72" x2="126.67" y2="659.45"/><line class="cls-5" x1="737.65" y1="232.53" x2="516.43" y2="659.45"/><line class="cls-5" x1="1281.65" y1="217.4" x2="818.43" y2="653.11"/><line class="cls-5" x1="527.89" y1="232.53" x2="426.77" y2="659.45"/><line class="cls-5" x1="426.77" y1="217.4" x2="329.55" y2="659.45"/><line class="cls-5" x1="305.77" y1="217.4" x2="222.55" y2="661.92"/><text class="cls-6" transform="translate(0 41.19)">Data Bind using <tspan x="0" y="57.6">ID Function</tspan></text></svg>