<svg id="Calque_1" data-name="Calque 1" xmlns="http://www.w3.org/2000/svg" viewBox="0 0 1838.85 674.93"><defs><style>.cls-1{fill:#add8e6;}.cls-2,.cls-9{fill:#c64466;}.cls-11,.cls-3,.cls-8,.cls-9{font-size:48px;}.cls-3{font-family:SourceSansPro-Regular, Source Sans Pro;}.cls-4{letter-spacing:-0.01em;}.cls-5{letter-spacing:0em;}.cls-6{letter-spacing:0em;}.cls-10,.cls-7{fill:none;stroke-miterlimit:10;stroke-width:5px;}.cls-7{stroke:#44a6c6;}.cls-8{fill:#44a6c6;}.cls-11,.cls-8,.cls-9{font-family:ArialMT, Arial;}.cls-10{stroke:#c64466;}</style></defs><rect class="cls-1" x="212.94" y="134.93" width="1270" height="112"/><rect class="cls-1" x="212.94" y="348.93" width="1270" height="112"/><rect class="cls-1" x="212.94" y="562.93" width="816" height="112"/><rect class="cls-2" x="339.18" y="348.93" width="78" height="112"/><rect class="cls-2" x="485.19" y="348.93" width="78" height="112"/><rect class="cls-2" x="758.07" y="348.93" width="78" height="112"/><rect class="cls-2" x="1250.07" y="348.93" width="78" height="112"/><text class="cls-3" transform="translate(1522.15 110.63)">D3 thinks these <tspan x="0" y="57.6">elemen</tspan><tspan class="cls-4" x="149.71" y="57.6">t</tspan><tspan x="165.5" y="57.6">s a</tspan><tspan class="cls-4" x="219.4" y="57.6">r</tspan><tspan class="cls-5" x="235.63" y="57.6">e </tspan><tspan class="cls-4" x="0" y="115.2">r</tspan><tspan x="16.22" y="115.2">em</tspan><tspan class="cls-6" x="79.82" y="115.2">ov</tspan><tspan x="127.92" y="115.2">ed</tspan></text><line class="cls-7" x1="281.92" y1="183.25" x2="282.69" y2="632.98"/><line class="cls-7" x1="673.92" y1="185.71" x2="674.69" y2="635.44"/><line class="cls-7" x1="997.92" y1="185.71" x2="998.69" y2="635.44"/><line class="cls-7" x1="573.92" y1="185.71" x2="574.69" y2="635.44"/><line class="cls-7" x1="473.68" y1="185.71" x2="474.45" y2="635.44"/><line class="cls-7" x1="377.8" y1="185.71" x2="378.57" y2="635.44"/><text class="cls-8" transform="translate(0 220.08)">Incorrect <tspan x="0" y="57.6">data bind </tspan><tspan x="0" y="115.2">associations</tspan></text><text class="cls-9" transform="translate(1522.15 391.19)">Don’t pass <tspan x="0" y="57.6">filter</tspan></text><rect class="cls-10" x="1028.94" y="76.46" width="468.58" height="433.59"/><text class="cls-11" transform="translate(62.73 41.19)">Data Bind without ID <tspan x="0" y="57.6">Function</tspan></text></svg>